<svg xmlns="http://www.w3.org/2000/svg" width="25.59" height="25.59" viewBox="0 0 25.59 25.59"><defs><style>.a{fill:#ffc107;}.b{fill:#ff3d00;}.c{fill:#4caf50;}.d{fill:#1976d2;}</style></defs><g transform="translate(-4 -4)"><path class="a" d="M29.341,14.289H28.311v-.053H16.8v5.118h7.231a7.683,7.683,0,1,1-2.138-8.292l3.619-3.619A12.782,12.782,0,1,0,29.59,16.8,12.882,12.882,0,0,0,29.341,14.289Z"/><path class="b" d="M6.306,10.84l4.2,3.083a7.662,7.662,0,0,1,12.209-2.86l3.619-3.619a12.77,12.77,0,0,0-20.032,3.4Z" transform="translate(-0.831)"/><path class="c" d="M17.586,38.256a12.735,12.735,0,0,0,8.578-3.322L22.2,31.583a7.657,7.657,0,0,1-11.837-3.529L6.2,31.269A12.785,12.785,0,0,0,17.586,38.256Z" transform="translate(-0.791 -8.665)"/><path class="d" d="M36.546,20.053H35.516V20H24v5.118h7.231a7.7,7.7,0,0,1-2.615,3.564h0l3.96,3.351A12.377,12.377,0,0,0,36.8,22.559,12.882,12.882,0,0,0,36.546,20.053Z" transform="translate(-7.205 -5.764)"/></g></svg>